#!OML:ASF X:\für Bonn\!DataBase\2005_08_11_Bastian_Final\c3d\Bastian.ASF
:FULLY-SPECIFIED
:DEGREES
240
root -22.1054 17.5201 0.660615 145.389 -75.6998 -155.906
lowerback 4.35605 -4.66468 4.78158
upperback 6.87787 -6.90373 5.34644
thorax 4.87722 -3.59669 2.89246
lowerneck 4.72452 -5.57626 1.5427
upperneck 17.9702 -9.52004 5.22553
head 4.84465 -4.72818 1.0609
rclavicle 2.56432e-014 -7.95139e-015
rhumerus -38.6246 19.9991 -84.6771
rradius 60.0763
rwrist 12.2547
rhand -17.2074 12.2367
rfingers 7.12502
rthumb 9.03524 -17.5498
lclavicle 2.56432e-014 -7.95139e-015
lhumerus -21.8672 -2.88815 89.4104
lradius 8.29171
lwrist -1.20837
lhand -9.5574 -9.40475
lfingers 7.12502
lthumb 16.4098 19.9211
rfemur -1.60988 2.90859 22.3245
rtibia 33.6985
rfoot -11.9334 -6.69985
rtoes -7.52337
lfemur 3.88348 11.8185 -14.5774
ltibia 24.4433
lfoot -12.9105 -0.718331
ltoes 2.96443
241
root -22.0954 17.5201 0.653686 145.769 -75.6103 -156.271
lowerback 4.35171 -4.68058 4.84182
upperback 6.91541 -6.934 5.36091
thorax 4.91649 -3.61089 2.8727
lowerneck 4.65712 -5.4264 1.39552
upperneck 18.0411 -9.27891 5.00481
head 4.8665 -4.62394 1.02092
rclavicle -2.5842e-014 6.04305e-014
rhumerus -38.6938 19.0638 -84.3711
rradius 59.3496
rwrist 11.7498
rhand -17.0699 12.2783
rfingers 7.12502
rthumb 9.16785 -17.5024
lclavicle -2.5842e-014 6.04305e-014
lhumerus -21.5929 -3.27286 89.4979
lradius 8.6045
lwrist -0.213427
lhand -9.5943 -9.33563
lfingers 7.12502
lthumb 16.3743 19.9932
rfemur -1.49471 2.85588 22.3044
rtibia 33.5086
rfoot -11.9865 -6.85505
rtoes -7.69491
lfemur 3.83811 11.8557 -14.6013
ltibia 24.4485
lfoot -12.9381 -0.651592
ltoes 2.83692
242
root -22.0848 17.5208 0.646431 146.108 -75.5203 -156.599
lowerback 4.36061 -4.69182 4.91501
upperback 6.95996 -6.95641 5.36147
thorax 4.95229 -3.61996 2.8324
lowerneck 4.56553 -5.27286 1.29399
upperneck 18.1138 -9.0293 4.76578
head 4.89046 -4.5132 0.967519
rclavicle -5.42682e-014 4.29375e-014
rhumerus -38.6997 18.1615 -84.0772
rradius 58.5606
rwrist 11.2127
rhand -16.9006 12.3398
rfingers 7.12502
rthumb 9.3313 -17.4337
lclavicle -5.42682e-014 4.29375e-014
lhumerus -21.3153 -3.69173 89.5583
lradius 8.94027
lwrist 0.788505
lhand -9.6156 -9.2965
lfingers 7.12502
lthumb 16.3538 20.034
rfemur -1.36834 2.79717 22.3007
rtibia 33.2994
rfoot -12.0147 -7.00216
rtoes -8.02444
lfemur 3.80789 11.8686 -14.6141
ltibia 24.4321
lfoot -12.9446 -0.578948
ltoes 2.95858
243
root -22.0744 17.5218 0.639718 146.438 -75.4122 -156.912
lowerback 4.36306 -4.70497 5.00432
upperback 6.99792 -6.9823 5.37398
thorax 4.9847 -3.63055 2.79549
lowerneck 4.49536 -5.099 1.14642
upperneck 18.1715 -8.74774 4.5213
head 4.90736 -4.39082 0.922076
rclavicle 7.53394e-014 -3.65764e-014
rhumerus -38.7265 17.3502 -83.7715
rradius 57.8043
rwrist 10.6512
rhand -16.7267 12.4066
rfingers 7.12502
rthumb 9.49909 -17.3593
lclavicle 7.53394e-014 -3.65764e-014
lhumerus -21.0821 -4.07513 89.6642
lradius 9.36364
lwrist 1.8508
lhand -9.67049 -9.19439
lfingers 7.12502
lthumb 16.3009 20.1405
rfemur -1.24906 2.74762 22.2979
rtibia 33.0766
rfoot -12.0491 -7.11953
rtoes -8.33343
lfemur 3.78055 11.875 -14.6269
ltibia 24.4009
lfoot -12.9541 -0.466864
ltoes 2.88863
244
root -22.0638 17.5235 0.63197 146.728 -75.3185 -157.183
lowerback 4.37613 -4.71233 5.08705
upperback 7.03321 -6.99851 5.38263
thorax 5.00819 -3.63641 2.75927
lowerneck 4.38324 -4.92159 1.04851
upperneck 18.2555 -8.45939 4.24654
head 4.93651 -4.26258 0.857776
rclavicle 1.86858e-014 -6.20208e-014
rhumerus -38.6972 16.5195 -83.4677
rradius 56.9921
rwrist 10.0694
rhand -16.6102 12.4892
rfingers 7.12502
rthumb 9.61142 -17.2716
lclavicle 1.86858e-014 -6.20208e-014
lhumerus -20.8854 -4.49991 89.768
lradius 9.87089
lwrist 2.92797
lhand -9.67018 -9.03549
lfingers 7.12502
lthumb 16.3012 20.2993
rfemur -1.12898 2.67125 22.303
rtibia 32.841
rfoot -12.0478 -7.22298
rtoes -8.84445
lfemur 3.7521 11.8213 -14.6431
ltibia 24.3621
lfoot -12.9689 -0.315573
ltoes 2.95166
245
root -22.0527 17.5254 0.624593 147.107 -75.2257 -157.54
lowerback 4.40436 -4.71443 5.15547
upperback 7.04837 -7.0026 5.38727
thorax 5.00215 -3.63655 2.72904
lowerneck 4.301 -4.72885 0.941418
upperneck 18.3424 -8.15022 3.96905
head 4.96215 -4.12653 0.795909
rclavicle -5.1684e-014 5.56597e-014
rhumerus -38.6976 15.7151 -83.1718
rradius 56.1869
rwrist 9.55243
rhand -16.5767 12.545
rfingers 7.12502
rthumb 9.64378 -17.2142
lclavicle -5.1684e-014 5.56597e-014
lhumerus -20.7263 -4.92691 89.8943
lradius 10.3968
lwrist 3.95321
lhand -9.73768 -8.87768
lfingers 7.12502
lthumb 16.2362 20.4625
rfemur -1.02326 2.58519 22.2748
rtibia 32.6083
rfoot -12.0252 -7.25897
rtoes -9.2687
lfemur 3.71698 11.7517 -14.6963
ltibia 24.3263
lfoot -12.9961 -0.130543
ltoes 2.84858
246
root -22.0426 17.527 0.615532 147.353 -75.1005 -157.747
lowerback 4.39199 -4.71032 5.2749
upperback 7.08636 -7.00597 5.39773
thorax 5.03897 -3.63382 2.67224
lowerneck 4.15854 -4.52486 0.848415
upperneck 18.4375 -7.82193 3.67574
head 4.99934 -3.97936 0.725623
rclavicle 2.10712e-014 3.33958e-014
rhumerus -38.6085 14.9127 -82.8553
rradius 55.3192
rwrist 9.15994
rhand -16.5662 12.6114
rfingers 7.12502
rthumb 9.65391 -17.1474
lclavicle 2.10712e-014 3.33958e-014
lhumerus -20.5266 -4.68383 89.7906
lradius 10.9558
lwrist 4.25181
lhand -9.69485 -8.71447
lfingers 7.12502
lthumb 16.2775 20.6223
rfemur -0.936041 2.54768 22.3176
rtibia 32.3841
rfoot -12.0099 -7.33705
rtoes -9.74011
lfemur 3.67282 11.6902 -14.6949
ltibia 24.2963
lfoot -13.0268 0.0619541
ltoes 2.57431
247
root -22.031 17.5285 0.605771 147.674 -75.0004 -158.044
lowerback 4.42266 -4.69866 5.33927
upperback 7.11218 -6.99323 5.40501
thorax 5.04361 -3.62596 2.64662
lowerneck 4.00814 -4.32705 0.794354
upperneck 18.5487 -7.49571 3.3332
head 5.04066 -3.83384 0.633548
rclavicle -4.96962e-015 -7.95139e-015
rhumerus -38.4922 14.0725 -82.5272
rradius 54.4354
rwrist 8.99471
rhand -16.5897 12.5864
rfingers 7.12502
rthumb 9.63121 -17.1734
lclavicle -4.96962e-015 -7.95139e-015
lhumerus -20.3927 -4.67616 89.7747
lradius 11.5792
lwrist 4.73874
lhand -9.71751 -8.52411
lfingers 7.12502
lthumb 16.2557 20.8144
rfemur -0.851647 2.52739 22.3306
rtibia 32.1737
rfoot -11.9784 -7.41761
rtoes -10.1339
lfemur 3.63032 11.5977 -14.7278
ltibia 24.2726
lfoot -13.0726 0.262362
ltoes 2.4702
248
root -22.0201 17.5292 0.593608 147.863 -74.9079 -158.211
lowerback 4.43677 -4.69602 5.41558
upperback 7.14317 -6.99522 5.41497
thorax 5.06258 -3.62485 2.61556
lowerneck 3.89765 -4.11055 0.705406
upperneck 18.6204 -7.14669 3.0382
head 5.06659 -3.67866 0.564647
rclavicle -1.98785e-016 7.95139e-015
rhumerus -38.3926 13.223 -82.2043
rradius 53.594
rwrist 8.93256
rhand -16.6083 12.5104
rfingers 7.12502
rthumb 9.61325 -17.2503
lclavicle -1.98785e-016 7.95139e-015
lhumerus -20.0092 -4.04003 89.6086
lradius 11.6956
lwrist 4.5342
lhand -9.80708 -8.59463
lfingers 7.12502
lthumb 16.1694 20.7509
rfemur -0.76483 2.54604 22.3956
rtibia 31.9746
rfoot -11.9592 -7.53359
rtoes -10.69
lfemur 3.59141 11.4595 -14.7362
ltibia 24.2548
lfoot -13.1072 0.510738
ltoes 2.25074
249
root -22.0089 17.5321 0.580088 148.06 -74.8123 -158.368
lowerback 4.44756 -4.69022 5.47793
upperback 7.16448 -6.99261 5.43345
thorax 5.07563 -3.6224 2.60101
lowerneck 3.77616 -3.89092 0.62089
upperneck 18.7026 -6.78889 2.71137
head 5.0971 -3.52091 0.485217
rclavicle -6.30147e-014 1.25632e-013
rhumerus -38.2816 12.3744 -81.8873
rradius 52.7384
rwrist 8.94084
rhand -16.6603 12.4618
rfingers 7.12502
rthumb 9.56311 -17.3011
lclavicle -6.30147e-014 1.25632e-013
lhumerus -19.7173 -3.73354 89.5574
lradius 11.9492
lwrist 4.63619
lhand -9.93905 -8.58383
lfingers 7.12502
lthumb 16.0423 20.772
rfemur -0.70764 2.57385 22.4665
rtibia 31.7894
rfoot -11.938 -7.63873
rtoes -11.1307
lfemur 3.53714 11.3146 -14.737
ltibia 24.2338
lfoot -13.149 0.731257
ltoes 2.11056
